<svg width="3000" height="3000" viewBox="0 0 3000 3000" fill="none" xmlns="http://www.w3.org/2000/svg">
<path d="M212 717C212 423.737 449.737 186 743 186H2258C2551.26 186 2789 423.737 2789 717V2283C2789 2576.26 2551.26 2814 2258 2814H743C449.737 2814 212 2576.26 212 2283V717Z" fill="url(#paint0_linear_3213_22)"/>
<path d="M1198.92 2196.51L1095.66 2095.25L1357.41 1766.59L1694.19 1335.6L1867.09 1117.4L1575.93 984.741C1551.91 968.497 1556.72 938.176 1588.53 930.054L1791.45 877.534L2320.34 749.21C2375.36 739.071 2375.17 765.633 2374.98 791.914L2374.97 793.067L2343.75 999.901L2292.72 1318.27L2271.11 1441.72C2263.91 1465.01 2238.09 1478 2211.08 1455.26L2197.87 1437.39L2083.21 1269L1849.08 1514.82L1442.65 1942.57L1198.92 2196.51Z" fill="white"/>
<path d="M1154.25 2249.18C1143.44 2257.3 1126.03 2254.06 1118.83 2247.56L1103.22 2228.07L1088.81 2209.66L633.096 1633.7C628.773 1628.23 625.048 1622.09 625.001 1615.38C624.839 1592.59 651.642 1590.12 664.376 1601.61L1174.06 2007.15L1288.72 2104.62C1248.1 2147.75 1167.16 2239.48 1154.25 2249.18Z" fill="white"/>
<defs>
<linearGradient id="paint0_linear_3213_22" x1="1500" y1="0" x2="1500" y2="3000" gradientUnits="userSpaceOnUse">
<stop stop-color="#6999F2"/>
<stop offset="1" stop-color="#216FFF"/>
</linearGradient>
</defs>
</svg>
