<svg width="9843" height="3000" viewBox="0 0 9843 3000" fill="none" xmlns="http://www.w3.org/2000/svg">
<path d="M1198.92 2196.51L1095.66 2095.25L1357.41 1766.59L1694.19 1335.6L1867.09 1117.4L1575.93 984.741C1551.91 968.497 1556.72 938.176 1588.53 930.054L1791.45 877.534L2320.34 749.21C2375.36 739.071 2375.17 765.633 2374.98 791.914L2374.97 793.067L2343.75 999.901L2292.72 1318.27L2271.11 1441.72C2263.91 1465.01 2238.09 1478 2211.08 1455.26L2197.87 1437.39L2083.21 1269L1849.08 1514.82L1442.65 1942.57L1198.92 2196.51Z" fill="url(#paint0_linear_3213_42)"/>
<path d="M1154.25 2249.18C1143.44 2257.3 1126.03 2254.06 1118.83 2247.56L1103.22 2228.07L1088.81 2209.66L633.096 1633.7C628.773 1628.23 625.048 1622.09 625.001 1615.38C624.839 1592.59 651.642 1590.12 664.376 1601.61L1174.06 2007.15L1288.72 2104.62C1248.1 2147.75 1167.16 2239.48 1154.25 2249.18Z" fill="url(#paint1_linear_3213_42)"/>
<path d="M2895.85 1957V1084.27H3240.17C3306.08 1084.27 3362.33 1096.06 3408.92 1119.64C3455.8 1142.94 3491.45 1176.03 3515.88 1218.93C3540.6 1261.55 3552.95 1311.69 3552.95 1369.36C3552.95 1427.31 3540.45 1477.17 3515.45 1518.93C3490.45 1560.41 3454.23 1592.23 3406.79 1614.39C3359.63 1636.55 3302.53 1647.62 3235.48 1647.62H3004.94V1499.33H3205.65C3240.88 1499.33 3270.14 1494.5 3293.44 1484.84C3316.73 1475.18 3334.06 1460.69 3345.43 1441.38C3357.07 1422.06 3362.9 1398.05 3362.9 1369.36C3362.9 1340.38 3357.07 1315.95 3345.43 1296.06C3334.06 1276.18 3316.59 1261.12 3293.01 1250.89C3269.72 1240.38 3240.31 1235.12 3204.8 1235.12H3080.37V1957H2895.85ZM3367.16 1559.84L3584.06 1957H3380.37L3168.15 1559.84H3367.16ZM3919.69 1969.78C3852.36 1969.78 3794.41 1956.15 3745.83 1928.88C3697.53 1901.32 3660.32 1862.4 3634.18 1812.11C3608.04 1761.55 3594.98 1701.74 3594.98 1632.71C3594.98 1565.38 3608.04 1506.29 3634.18 1455.44C3660.32 1404.59 3697.11 1364.95 3744.55 1336.55C3792.28 1308.14 3848.24 1293.93 3912.45 1293.93C3955.63 1293.93 3995.83 1300.89 4033.04 1314.81C4070.54 1328.45 4103.21 1349.05 4131.06 1376.6C4159.18 1404.16 4181.06 1438.82 4196.68 1480.58C4212.31 1522.06 4220.12 1570.64 4220.12 1626.32V1676.18H3667.42V1563.68H4049.24C4049.24 1537.54 4043.56 1514.39 4032.19 1494.22C4020.83 1474.05 4005.06 1458.28 3984.89 1446.91C3965 1435.27 3941.85 1429.44 3915.43 1429.44C3887.87 1429.44 3863.44 1435.84 3842.13 1448.62C3821.11 1461.12 3804.63 1478.02 3792.7 1499.33C3780.77 1520.35 3774.66 1543.79 3774.38 1569.64V1676.6C3774.38 1708.99 3780.35 1736.97 3792.28 1760.55C3804.49 1784.13 3821.68 1802.31 3843.84 1815.1C3866 1827.88 3892.28 1834.27 3922.67 1834.27C3942.85 1834.27 3961.31 1831.43 3978.07 1825.75C3994.83 1820.07 4009.18 1811.55 4021.11 1800.18C4033.04 1788.82 4042.13 1774.9 4048.38 1758.42L4216.28 1769.5C4207.76 1809.84 4190.29 1845.07 4163.87 1875.18C4137.73 1905.01 4103.92 1928.31 4062.45 1945.07C4021.25 1961.55 3973.67 1969.78 3919.69 1969.78ZM4638.74 1302.45V1438.82H4244.56V1302.45H4638.74ZM4334.05 1145.64H4515.58V1755.86C4515.58 1772.62 4518.14 1785.69 4523.25 1795.07C4528.37 1804.16 4535.47 1810.55 4544.56 1814.24C4553.94 1817.94 4564.73 1819.78 4576.95 1819.78C4585.47 1819.78 4593.99 1819.07 4602.52 1817.65C4611.04 1815.95 4617.57 1814.67 4622.12 1813.82L4650.67 1948.9C4641.58 1951.74 4628.79 1955.01 4612.32 1958.7C4595.84 1962.68 4575.81 1965.1 4552.23 1965.95C4508.48 1967.65 4470.13 1961.83 4437.17 1948.48C4404.5 1935.12 4379.08 1914.39 4360.9 1886.26C4342.71 1858.14 4333.77 1822.62 4334.05 1779.73V1145.64ZM4708.99 1957V1302.45H4884.98V1416.66H4891.8C4903.73 1376.03 4923.76 1345.35 4951.89 1324.61C4980.01 1303.59 5012.4 1293.08 5049.05 1293.08C5058.14 1293.08 5067.94 1293.65 5078.45 1294.78C5088.96 1295.92 5098.19 1297.48 5106.15 1299.47V1460.55C5097.63 1457.99 5085.84 1455.72 5070.78 1453.73C5055.72 1451.74 5041.94 1450.75 5029.44 1450.75C5002.74 1450.75 4978.88 1456.57 4957.85 1468.22C4937.12 1479.59 4920.64 1495.49 4908.42 1515.95C4896.49 1536.4 4890.52 1559.98 4890.52 1586.69V1957H4708.99ZM5419.83 1969.78C5352.5 1969.78 5294.55 1956.15 5245.97 1928.88C5197.67 1901.32 5160.46 1862.4 5134.32 1812.11C5108.18 1761.55 5095.12 1701.74 5095.12 1632.71C5095.12 1565.38 5108.18 1506.29 5134.32 1455.44C5160.46 1404.59 5197.25 1364.95 5244.69 1336.55C5292.42 1308.14 5348.38 1293.93 5412.59 1293.93C5455.77 1293.93 5495.97 1300.89 5533.18 1314.81C5570.68 1328.45 5603.36 1349.05 5631.2 1376.6C5659.32 1404.16 5681.2 1438.82 5696.82 1480.58C5712.45 1522.06 5720.26 1570.64 5720.26 1626.32V1676.18H5167.56V1563.68H5549.38C5549.38 1537.54 5543.7 1514.39 5532.33 1494.22C5520.97 1474.05 5505.2 1458.28 5485.03 1446.91C5465.14 1435.27 5441.99 1429.44 5415.57 1429.44C5388.01 1429.44 5363.58 1435.84 5342.28 1448.62C5321.25 1461.12 5304.78 1478.02 5292.84 1499.33C5280.91 1520.35 5274.8 1543.79 5274.52 1569.64V1676.6C5274.52 1708.99 5280.49 1736.97 5292.42 1760.55C5304.63 1784.13 5321.82 1802.31 5343.98 1815.1C5366.14 1827.88 5392.42 1834.27 5422.82 1834.27C5442.99 1834.27 5461.45 1831.43 5478.21 1825.75C5494.97 1820.07 5509.32 1811.55 5521.25 1800.18C5533.18 1788.82 5542.28 1774.9 5548.53 1758.42L5716.42 1769.5C5707.9 1809.84 5690.43 1845.07 5664.01 1875.18C5637.87 1905.01 5604.07 1928.31 5562.59 1945.07C5521.39 1961.55 5473.81 1969.78 5419.83 1969.78ZM6089.02 1969.78C6021.69 1969.78 5963.74 1956.15 5915.16 1928.88C5866.86 1901.32 5829.64 1862.4 5803.51 1812.11C5777.37 1761.55 5764.3 1701.74 5764.3 1632.71C5764.3 1565.38 5777.37 1506.29 5803.51 1455.44C5829.64 1404.59 5866.43 1364.95 5913.88 1336.55C5961.61 1308.14 6017.57 1293.93 6081.78 1293.93C6124.96 1293.93 6165.16 1300.89 6202.37 1314.81C6239.87 1328.45 6272.54 1349.05 6300.38 1376.6C6328.51 1404.16 6350.38 1438.82 6366.01 1480.58C6381.63 1522.06 6389.45 1570.64 6389.45 1626.32V1676.18H5836.75V1563.68H6218.57C6218.57 1537.54 6212.88 1514.39 6201.52 1494.22C6190.16 1474.05 6174.39 1458.28 6154.22 1446.91C6134.33 1435.27 6111.18 1429.44 6084.76 1429.44C6057.2 1429.44 6032.77 1435.84 6011.46 1448.62C5990.44 1461.12 5973.96 1478.02 5962.03 1499.33C5950.1 1520.35 5943.99 1543.79 5943.71 1569.64V1676.6C5943.71 1708.99 5949.67 1736.97 5961.61 1760.55C5973.82 1784.13 5991.01 1802.31 6013.17 1815.1C6035.33 1827.88 6061.61 1834.27 6092 1834.27C6112.17 1834.27 6130.64 1831.43 6147.4 1825.75C6164.16 1820.07 6178.51 1811.55 6190.44 1800.18C6202.37 1788.82 6211.46 1774.9 6217.71 1758.42L6385.61 1769.5C6377.09 1809.84 6359.62 1845.07 6333.2 1875.18C6307.06 1905.01 6273.25 1928.31 6231.78 1945.07C6190.58 1961.55 6143 1969.78 6089.02 1969.78ZM7052.56 1302.45L6823.73 1957H6619.18L6390.35 1302.45H6582.11L6718.04 1770.78H6724.86L6860.37 1302.45H7052.56ZM7374.66 1969.78C7307.33 1969.78 7249.38 1956.15 7200.8 1928.88C7152.5 1901.32 7115.29 1862.4 7089.15 1812.11C7063.01 1761.55 7049.94 1701.74 7049.94 1632.71C7049.94 1565.38 7063.01 1506.29 7089.15 1455.44C7115.29 1404.59 7152.08 1364.95 7199.52 1336.55C7247.25 1308.14 7303.21 1293.93 7367.42 1293.93C7410.6 1293.93 7450.8 1300.89 7488.01 1314.81C7525.51 1328.45 7558.18 1349.05 7586.02 1376.6C7614.15 1404.16 7636.02 1438.82 7651.65 1480.58C7667.27 1522.06 7675.09 1570.64 7675.09 1626.32V1676.18H7122.39V1563.68H7504.21C7504.21 1537.54 7498.52 1514.39 7487.16 1494.22C7475.8 1474.05 7460.03 1458.28 7439.86 1446.91C7419.97 1435.27 7396.82 1429.44 7370.4 1429.44C7342.84 1429.44 7318.41 1435.84 7297.1 1448.62C7276.08 1461.12 7259.6 1478.02 7247.67 1499.33C7235.74 1520.35 7229.63 1543.79 7229.35 1569.64V1676.6C7229.35 1708.99 7235.31 1736.97 7247.25 1760.55C7259.46 1784.13 7276.65 1802.31 7298.81 1815.1C7320.97 1827.88 7347.25 1834.27 7377.64 1834.27C7397.81 1834.27 7416.28 1831.43 7433.04 1825.75C7449.8 1820.07 7464.15 1811.55 7476.08 1800.18C7488.01 1788.82 7497.1 1774.9 7503.35 1758.42L7671.25 1769.5C7662.73 1809.84 7645.26 1845.07 7618.84 1875.18C7592.7 1905.01 7558.89 1928.31 7517.42 1945.07C7476.22 1961.55 7428.64 1969.78 7374.66 1969.78ZM7745.55 1957V1302.45H7921.55V1416.66H7928.37C7940.3 1376.03 7960.33 1345.35 7988.45 1324.61C8016.58 1303.59 8048.96 1293.08 8085.61 1293.08C8094.7 1293.08 8104.5 1293.65 8115.01 1294.78C8125.52 1295.92 8134.76 1297.48 8142.71 1299.47V1460.55C8134.19 1457.99 8122.4 1455.72 8107.34 1453.73C8092.29 1451.74 8078.51 1450.75 8066.01 1450.75C8039.3 1450.75 8015.44 1456.57 7994.42 1468.22C7973.68 1479.59 7957.2 1495.49 7944.98 1515.95C7933.05 1536.4 7927.09 1559.98 7927.09 1586.69V1957H7745.55Z" fill="#F2F2F2"/>
<defs>
<linearGradient id="paint0_linear_3213_42" x1="1500" y1="0" x2="1500" y2="3000" gradientUnits="userSpaceOnUse">
<stop stop-color="#6999F2"/>
<stop offset="1" stop-color="#1366FF"/>
</linearGradient>
<linearGradient id="paint1_linear_3213_42" x1="1500" y1="0" x2="1500" y2="3000" gradientUnits="userSpaceOnUse">
<stop stop-color="#6999F2"/>
<stop offset="1" stop-color="#1366FF"/>
</linearGradient>
</defs>
</svg>
