<svg width="9843" height="3000" viewBox="0 0 9843 3000" fill="none" xmlns="http://www.w3.org/2000/svg">
<path d="M1198.92 2196.51L1095.66 2095.25L1357.41 1766.59L1694.19 1335.6L1867.09 1117.4L1575.93 984.741C1551.91 968.497 1556.72 938.176 1588.53 930.054L1791.45 877.534L2320.34 749.21C2375.36 739.071 2375.17 765.633 2374.98 791.914L2374.97 793.067L2343.75 999.901L2292.72 1318.27L2271.11 1441.72C2263.91 1465.01 2238.09 1478 2211.08 1455.26L2197.87 1437.39L2083.21 1269L1849.08 1514.82L1442.65 1942.57L1198.92 2196.51Z" fill="url(#paint0_linear_3213_42)"/>
<path d="M1154.25 2249.18C1143.44 2257.3 1126.03 2254.06 1118.83 2247.56L1103.22 2228.07L1088.81 2209.66L633.096 1633.7C628.773 1628.23 625.048 1622.09 625.001 1615.38C624.839 1592.59 651.642 1590.12 664.376 1601.61L1174.06 2007.15L1288.72 2104.62C1248.1 2147.75 1167.16 2239.48 1154.25 2249.18Z" fill="url(#paint1_linear_3213_42)"/>
<path d="M2948.91 2002C2929.38 2002 2919.61 1991.26 2919.61 1969.77V1193.99C2919.61 1172.51 2929.38 1161.77 2948.91 1161.77H3231.91C3344.8 1161.77 3426.45 1182.86 3476.84 1225.05C3527.62 1267.23 3553.01 1322.9 3553.01 1392.04C3553.01 1452.98 3532.5 1504.15 3491.48 1545.55C3450.86 1586.96 3392.85 1610.79 3317.46 1617.04V1618.21C3357.3 1647.9 3383.67 1670.55 3396.56 1686.18C3409.45 1701.41 3423.91 1722.12 3439.92 1748.29L3572.34 1963.33C3588.36 1989.11 3584.84 2002 3561.8 2002H3495C3476.64 2002 3462.97 1994.38 3453.98 1979.15L3332.11 1769.97C3314.53 1739.89 3289.34 1710.4 3256.52 1681.49C3223.71 1652.59 3182.89 1638.13 3134.06 1638.13H3032.11V1969.77C3032.11 1991.26 3022.34 2002 3002.81 2002H2948.91ZM3032.11 1542.04H3201.45C3277.62 1542.04 3336.21 1532.08 3377.23 1512.16C3418.24 1491.84 3438.75 1449.46 3438.75 1385.01C3438.75 1335.79 3420 1302.39 3382.5 1284.81C3345 1266.84 3294.02 1257.86 3229.57 1257.86H3032.11V1542.04ZM3686.6 1694.38C3686.6 1597.51 3710.82 1520.36 3759.26 1462.94C3807.7 1405.52 3877.03 1376.8 3967.27 1376.8C4042.27 1376.8 4104.38 1403.17 4153.59 1455.91C4203.2 1508.25 4228.01 1592.04 4228.01 1707.27C4228.01 1724.85 4220 1733.64 4203.98 1733.64H3795.59C3802.23 1809.03 3822.54 1861.57 3856.52 1891.26C3890.51 1920.55 3928.98 1935.2 3971.95 1935.2C4017.27 1935.2 4052.03 1927.59 4076.25 1912.35C4100.47 1897.12 4118.24 1882.08 4129.57 1867.23C4142.07 1850.83 4154.18 1847.7 4165.9 1857.86L4200.47 1887.74C4209.45 1895.55 4209.45 1906.3 4200.47 1919.97C4193.05 1931.3 4171.76 1949.46 4136.6 1974.46C4101.84 1999.46 4046.95 2011.96 3971.95 2011.96C3874.3 2011.96 3802.23 1983.25 3755.74 1925.83C3709.65 1868.41 3686.6 1791.26 3686.6 1694.38ZM3793.24 1657.47H4124.3C4122.73 1602.78 4108.67 1554.93 4082.11 1513.91C4055.55 1472.51 4016.48 1451.8 3964.92 1451.8C3919.61 1451.8 3881.13 1467.04 3849.49 1497.51C3817.85 1527.59 3799.1 1580.91 3793.24 1657.47ZM4333.48 1464.11C4315.9 1464.11 4307.11 1457.27 4307.11 1443.6V1407.27C4307.11 1393.6 4315.9 1386.77 4333.48 1386.77H4402.62V1334.03C4402.62 1326.22 4404.57 1318.8 4408.48 1311.77L4449.49 1237.35C4456.91 1223.68 4462.97 1216.84 4467.66 1216.84H4488.16C4499.88 1216.84 4505.74 1223.68 4505.74 1237.35V1386.77H4630.55C4648.12 1386.77 4656.91 1393.6 4656.91 1407.27V1443.6C4656.91 1457.27 4648.12 1464.11 4630.55 1464.11H4505.74V1837.35C4505.74 1878.37 4511.8 1905.12 4523.91 1917.62C4536.41 1929.73 4551.25 1935.79 4568.44 1935.79C4581.72 1935.79 4597.54 1931.88 4615.9 1924.07C4634.65 1916.26 4647.54 1909.62 4654.57 1904.15C4661.6 1898.68 4667.07 1900.44 4670.98 1909.42L4690.31 1954.54C4693.44 1962.35 4691.09 1968.6 4683.28 1973.29C4668.05 1982.27 4645.78 1991.06 4616.48 1999.66C4587.19 2007.86 4557.89 2011.96 4528.59 2011.96C4487.97 2011.96 4456.72 1997.31 4434.84 1968.02C4413.36 1938.72 4402.62 1897.31 4402.62 1843.8V1464.11H4333.48ZM4833.87 2002C4816.29 2002 4807.5 1993.21 4807.5 1975.63V1413.13C4807.5 1395.55 4816.29 1386.77 4833.87 1386.77H4883.09C4900.66 1386.77 4909.45 1395.55 4909.45 1413.13V1483.45H4911.8C4930.55 1448.29 4952.62 1421.73 4978.01 1403.76C5003.4 1385.79 5035.04 1376.8 5072.93 1376.8C5097.93 1376.8 5115.51 1378.95 5125.66 1383.25C5134.65 1386.77 5137.97 1392.62 5135.62 1400.83L5122.15 1448.88C5120.2 1455.91 5115.12 1458.64 5106.91 1457.08C5093.24 1454.34 5080.35 1452.98 5068.24 1452.98C5022.54 1452.98 4984.84 1473.68 4955.16 1515.09C4925.47 1556.1 4910.62 1612.16 4910.62 1683.25V1975.63C4910.62 1993.21 4901.84 2002 4884.26 2002H4833.87ZM5197.15 1694.38C5197.15 1597.51 5221.37 1520.36 5269.8 1462.94C5318.24 1405.52 5387.58 1376.8 5477.81 1376.8C5552.81 1376.8 5614.92 1403.17 5664.14 1455.91C5713.75 1508.25 5738.55 1592.04 5738.55 1707.27C5738.55 1724.85 5730.55 1733.64 5714.53 1733.64H5306.13C5312.77 1809.03 5333.09 1861.57 5367.07 1891.26C5401.05 1920.55 5439.53 1935.2 5482.5 1935.2C5527.81 1935.2 5562.58 1927.59 5586.8 1912.35C5611.02 1897.12 5628.79 1882.08 5640.12 1867.23C5652.62 1850.83 5664.73 1847.7 5676.45 1857.86L5711.02 1887.74C5720 1895.55 5720 1906.3 5711.02 1919.97C5703.59 1931.3 5682.3 1949.46 5647.15 1974.46C5612.38 1999.46 5557.5 2011.96 5482.5 2011.96C5384.84 2011.96 5312.77 1983.25 5266.29 1925.83C5220.2 1868.41 5197.15 1791.26 5197.15 1694.38ZM5303.79 1657.47H5634.84C5633.28 1602.78 5619.22 1554.93 5592.66 1513.91C5566.09 1472.51 5527.03 1451.8 5475.47 1451.8C5430.16 1451.8 5391.68 1467.04 5360.04 1497.51C5328.4 1527.59 5309.65 1580.91 5303.79 1657.47ZM5840.51 1694.38C5840.51 1597.51 5864.73 1520.36 5913.16 1462.94C5961.6 1405.52 6030.94 1376.8 6121.17 1376.8C6196.17 1376.8 6258.28 1403.17 6307.5 1455.91C6357.11 1508.25 6381.91 1592.04 6381.91 1707.27C6381.91 1724.85 6373.91 1733.64 6357.89 1733.64H5949.49C5956.13 1809.03 5976.45 1861.57 6010.43 1891.26C6044.41 1920.55 6082.89 1935.2 6125.86 1935.2C6171.17 1935.2 6205.94 1927.59 6230.16 1912.35C6254.38 1897.12 6272.15 1882.08 6283.48 1867.23C6295.98 1850.83 6308.09 1847.7 6319.8 1857.86L6354.38 1887.74C6363.36 1895.55 6363.36 1906.3 6354.38 1919.97C6346.95 1931.3 6325.66 1949.46 6290.51 1974.46C6255.74 1999.46 6200.86 2011.96 6125.86 2011.96C6028.2 2011.96 5956.13 1983.25 5909.65 1925.83C5863.55 1868.41 5840.51 1791.26 5840.51 1694.38ZM5947.15 1657.47H6278.2C6276.64 1602.78 6262.58 1554.93 6236.02 1513.91C6209.45 1472.51 6170.39 1451.8 6118.83 1451.8C6073.52 1451.8 6035.04 1467.04 6003.4 1497.51C5971.76 1527.59 5953.01 1580.91 5947.15 1657.47ZM6470.39 1415.48C6463.75 1396.34 6469.02 1386.77 6486.21 1386.77H6550.08C6562.58 1386.77 6571.37 1394.38 6576.45 1409.62L6700.66 1796.34C6710.82 1827.98 6717.66 1849.85 6721.17 1861.96C6725.08 1873.68 6728.59 1888.33 6731.72 1905.91H6734.06C6737.19 1888.33 6740.51 1873.68 6744.02 1861.96C6747.93 1849.85 6754.96 1827.98 6765.12 1796.34L6889.34 1409.62C6894.41 1394.38 6903.2 1386.77 6915.7 1386.77H6979.57C6996.76 1386.77 7002.03 1396.34 6995.39 1415.48L6803.2 1966.26C6795 1990.09 6784.45 2002 6771.56 2002H6694.22C6681.33 2002 6670.78 1990.09 6662.58 1966.26L6470.39 1415.48ZM7061.6 1694.38C7061.6 1597.51 7085.82 1520.36 7134.26 1462.94C7182.7 1405.52 7252.03 1376.8 7342.27 1376.8C7417.27 1376.8 7479.38 1403.17 7528.59 1455.91C7578.2 1508.25 7603.01 1592.04 7603.01 1707.27C7603.01 1724.85 7595 1733.64 7578.98 1733.64H7170.59C7177.23 1809.03 7197.54 1861.57 7231.52 1891.26C7265.51 1920.55 7303.98 1935.2 7346.95 1935.2C7392.27 1935.2 7427.03 1927.59 7451.25 1912.35C7475.47 1897.12 7493.24 1882.08 7504.57 1867.23C7517.07 1850.83 7529.18 1847.7 7540.9 1857.86L7575.47 1887.74C7584.45 1895.55 7584.45 1906.3 7575.47 1919.97C7568.05 1931.3 7546.76 1949.46 7511.6 1974.46C7476.84 1999.46 7421.95 2011.96 7346.95 2011.96C7249.3 2011.96 7177.23 1983.25 7130.74 1925.83C7084.65 1868.41 7061.6 1791.26 7061.6 1694.38ZM7168.24 1657.47H7499.3C7497.73 1602.78 7483.67 1554.93 7457.11 1513.91C7430.55 1472.51 7391.48 1451.8 7339.92 1451.8C7294.61 1451.8 7256.13 1467.04 7224.49 1497.51C7192.85 1527.59 7174.1 1580.91 7168.24 1657.47ZM7764.73 2002C7747.15 2002 7738.36 1993.21 7738.36 1975.63V1413.13C7738.36 1395.55 7747.15 1386.77 7764.73 1386.77H7813.95C7831.52 1386.77 7840.31 1395.55 7840.31 1413.13V1483.45H7842.66C7861.41 1448.29 7883.48 1421.73 7908.87 1403.76C7934.26 1385.79 7965.9 1376.8 8003.79 1376.8C8028.79 1376.8 8046.37 1378.95 8056.52 1383.25C8065.51 1386.77 8068.83 1392.62 8066.48 1400.83L8053.01 1448.88C8051.05 1455.91 8045.98 1458.64 8037.77 1457.08C8024.1 1454.34 8011.21 1452.98 7999.1 1452.98C7953.4 1452.98 7915.7 1473.68 7886.02 1515.09C7856.33 1556.1 7841.48 1612.16 7841.48 1683.25V1975.63C7841.48 1993.21 7832.7 2002 7815.12 2002H7764.73Z" fill="#F2F2F2"/>
<defs>
<linearGradient id="paint0_linear_3213_42" x1="1500" y1="0" x2="1500" y2="3000" gradientUnits="userSpaceOnUse">
<stop stop-color="#6999F2"/>
<stop offset="1" stop-color="#1366FF"/>
</linearGradient>
<linearGradient id="paint1_linear_3213_42" x1="1500" y1="0" x2="1500" y2="3000" gradientUnits="userSpaceOnUse">
<stop stop-color="#6999F2"/>
<stop offset="1" stop-color="#1366FF"/>
</linearGradient>
</defs>
</svg>
