<svg width="10425" height="3000" viewBox="0 0 10425 3000" fill="none" xmlns="http://www.w3.org/2000/svg">
<path d="M212.002 717C212.002 423.737 449.739 186 743.002 186L2258 186C2551.27 186 2789 423.737 2789 717V2283C2789 2576.26 2551.27 2814 2258 2814H743.002C449.739 2814 212.002 2576.26 212.002 2283L212.002 717Z" fill="url(#paint0_linear_3219_15)"/>
<path d="M1198.92 2196.51L1095.66 2095.25L1357.41 1766.59L1694.19 1335.6L1867.09 1117.4L1575.93 984.741C1551.92 968.497 1556.72 938.176 1588.54 930.054L1791.45 877.534L2320.34 749.21C2375.37 739.071 2375.17 765.633 2374.98 791.914L2374.97 793.067L2343.75 999.901L2292.73 1318.27L2271.11 1441.72C2263.91 1465.01 2238.1 1478 2211.08 1455.26L2197.87 1437.39L2083.21 1269L1849.08 1514.82L1442.65 1942.57L1198.92 2196.51Z" fill="white"/>
<path d="M1154.25 2249.18C1143.44 2257.3 1126.03 2254.06 1118.83 2247.56L1103.22 2228.07L1088.81 2209.66L633.098 1633.7C628.775 1628.23 625.05 1622.09 625.003 1615.38C624.841 1592.59 651.644 1590.12 664.378 1601.61L1174.06 2007.15L1288.72 2104.62C1248.1 2147.75 1167.16 2239.48 1154.25 2249.18Z" fill="white"/>
<path d="M3569.82 2051V960.093H4000.22C4082.6 960.093 4152.91 974.83 4211.15 1004.3C4269.75 1033.42 4314.31 1074.79 4344.85 1128.42C4375.75 1181.68 4391.2 1244.36 4391.2 1316.45C4391.2 1388.89 4375.57 1451.22 4344.32 1503.42C4313.07 1555.26 4267.79 1595.04 4208.49 1622.73C4149.54 1650.43 4078.16 1664.28 3994.36 1664.28H3706.18V1478.91H3957.07C4001.1 1478.91 4037.68 1472.88 4066.8 1460.8C4095.92 1448.73 4117.58 1430.62 4131.78 1406.47C4146.34 1382.32 4153.62 1352.32 4153.62 1316.45C4153.62 1280.23 4146.34 1249.69 4131.78 1224.83C4117.58 1199.97 4095.74 1181.15 4066.27 1168.37C4037.15 1155.23 4000.39 1148.66 3956 1148.66H3800.46V2051H3569.82ZM4158.95 1554.55L4430.08 2051H4175.46L3910.19 1554.55H4158.95ZM4849.62 2066.98C4765.45 2066.98 4693.01 2049.94 4632.29 2015.85C4571.92 1981.4 4525.4 1932.75 4492.73 1869.89C4460.06 1806.68 4443.72 1731.93 4443.72 1645.64C4443.72 1561.48 4460.06 1487.61 4492.73 1424.05C4525.4 1360.48 4571.39 1310.95 4630.69 1275.43C4690.35 1239.92 4760.31 1222.17 4840.56 1222.17C4894.54 1222.17 4944.79 1230.87 4991.31 1248.27C5038.18 1265.31 5079.02 1291.06 5113.82 1325.5C5148.98 1359.95 5176.32 1403.27 5195.85 1455.48C5215.38 1507.32 5225.15 1568.05 5225.15 1637.65V1699.97H4534.28V1559.35H5011.55C5011.55 1526.68 5004.45 1497.73 4990.24 1472.52C4976.04 1447.31 4956.33 1427.6 4931.12 1413.4C4906.26 1398.84 4877.32 1391.56 4844.29 1391.56C4809.84 1391.56 4779.3 1399.55 4752.67 1415.53C4726.39 1431.15 4705.8 1452.28 4690.88 1478.91C4675.97 1505.19 4668.33 1534.49 4667.98 1566.8V1700.5C4667.98 1740.99 4675.43 1775.97 4690.35 1805.44C4705.62 1834.92 4727.1 1857.64 4754.8 1873.62C4782.5 1889.6 4815.35 1897.59 4853.35 1897.59C4878.56 1897.59 4901.64 1894.04 4922.59 1886.94C4943.54 1879.84 4961.48 1869.18 4976.39 1854.98C4991.31 1840.77 5002.67 1823.37 5010.48 1802.78L5220.36 1816.63C5209.7 1867.05 5187.86 1911.09 5154.84 1948.73C5122.17 1986.02 5079.91 2015.14 5028.06 2036.09C4976.57 2056.68 4917.09 2066.98 4849.62 2066.98ZM5748.42 1232.82V1403.27H5255.7V1232.82H5748.42ZM5367.56 1036.8H5594.48V1799.58C5594.48 1820.53 5597.68 1836.87 5604.07 1848.59C5610.46 1859.95 5619.34 1867.94 5630.7 1872.56C5642.42 1877.17 5655.92 1879.48 5671.19 1879.48C5681.84 1879.48 5692.49 1878.59 5703.15 1876.82C5713.8 1874.69 5721.97 1873.09 5727.65 1872.02L5763.34 2040.88C5751.97 2044.43 5735.99 2048.52 5715.4 2053.13C5694.8 2058.1 5669.77 2061.12 5640.29 2062.19C5585.6 2064.32 5537.66 2057.04 5496.47 2040.35C5455.63 2023.66 5423.85 1997.73 5401.12 1962.58C5378.4 1927.42 5367.21 1883.03 5367.56 1829.41V1036.8ZM5836.24 2051V1232.82H6056.23V1375.58H6064.76C6079.67 1324.79 6104.71 1286.44 6139.86 1260.52C6175.02 1234.24 6215.5 1221.1 6261.31 1221.1C6272.67 1221.1 6284.93 1221.81 6298.06 1223.23C6311.2 1224.65 6322.75 1226.61 6332.69 1229.09V1430.44C6322.04 1427.24 6307.3 1424.4 6288.48 1421.92C6269.66 1419.43 6252.43 1418.19 6236.81 1418.19C6203.43 1418.19 6173.6 1425.47 6147.32 1440.03C6121.4 1454.23 6100.8 1474.12 6085.53 1499.69C6070.61 1525.26 6063.16 1554.73 6063.16 1588.11V2051H5836.24ZM6724.79 2066.98C6640.63 2066.98 6568.19 2049.94 6507.46 2015.85C6447.09 1981.4 6400.57 1932.75 6367.9 1869.89C6335.23 1806.68 6318.9 1731.93 6318.9 1645.64C6318.9 1561.48 6335.23 1487.61 6367.9 1424.05C6400.57 1360.48 6446.56 1310.95 6505.86 1275.43C6565.52 1239.92 6635.48 1222.17 6715.74 1222.17C6769.71 1222.17 6819.96 1230.87 6866.48 1248.27C6913.36 1265.31 6954.2 1291.06 6989 1325.5C7024.15 1359.95 7051.5 1403.27 7071.03 1455.48C7090.56 1507.32 7100.33 1568.05 7100.33 1637.65V1699.97H6409.45V1559.35H6886.72C6886.72 1526.68 6879.62 1497.73 6865.42 1472.52C6851.21 1447.31 6831.5 1427.6 6806.29 1413.4C6781.43 1398.84 6752.49 1391.56 6719.47 1391.56C6685.02 1391.56 6654.48 1399.55 6627.85 1415.53C6601.57 1431.15 6580.97 1452.28 6566.06 1478.91C6551.14 1505.19 6543.51 1534.49 6543.15 1566.8V1700.5C6543.15 1740.99 6550.61 1775.97 6565.52 1805.44C6580.79 1834.92 6602.28 1857.64 6629.98 1873.62C6657.68 1889.6 6690.52 1897.59 6728.52 1897.59C6753.73 1897.59 6776.82 1894.04 6797.77 1886.94C6818.72 1879.84 6836.65 1869.18 6851.57 1854.98C6866.48 1840.77 6877.85 1823.37 6885.66 1802.78L7095.53 1816.63C7084.88 1867.05 7063.04 1911.09 7030.01 1948.73C6997.34 1986.02 6955.08 2015.14 6903.24 2036.09C6851.75 2056.68 6792.26 2066.98 6724.79 2066.98ZM7561.28 2066.98C7477.11 2066.98 7404.67 2049.94 7343.95 2015.85C7283.58 1981.4 7237.06 1932.75 7204.39 1869.89C7171.72 1806.68 7155.38 1731.93 7155.38 1645.64C7155.38 1561.48 7171.72 1487.61 7204.39 1424.05C7237.06 1360.48 7283.05 1310.95 7342.35 1275.43C7402.01 1239.92 7471.97 1222.17 7552.22 1222.17C7606.2 1222.17 7656.45 1230.87 7702.97 1248.27C7749.84 1265.31 7790.68 1291.06 7825.48 1325.5C7860.64 1359.95 7887.98 1403.27 7907.51 1455.48C7927.04 1507.32 7936.81 1568.05 7936.81 1637.65V1699.97H7245.94V1559.35H7723.21C7723.21 1526.68 7716.11 1497.73 7701.9 1472.52C7687.7 1447.31 7667.99 1427.6 7642.78 1413.4C7617.92 1398.84 7588.98 1391.56 7555.95 1391.56C7521.5 1391.56 7490.96 1399.55 7464.33 1415.53C7438.05 1431.15 7417.46 1452.28 7402.54 1478.91C7387.63 1505.19 7379.99 1534.49 7379.64 1566.8V1700.5C7379.64 1740.99 7387.09 1775.97 7402.01 1805.44C7417.28 1834.92 7438.76 1857.64 7466.46 1873.62C7494.16 1889.6 7527.01 1897.59 7565.01 1897.59C7590.22 1897.59 7613.3 1894.04 7634.25 1886.94C7655.2 1879.84 7673.14 1869.18 7688.05 1854.98C7702.97 1840.77 7714.33 1823.37 7722.14 1802.78L7932.02 1816.63C7921.36 1867.05 7899.52 1911.09 7866.5 1948.73C7833.83 1986.02 7791.57 2015.14 7739.72 2036.09C7688.23 2056.68 7628.75 2066.98 7561.28 2066.98ZM8765.7 1232.82L8479.66 2051H8223.98L7937.93 1232.82H8177.64L8347.56 1818.22H8356.08L8525.47 1232.82H8765.7ZM9168.33 2066.98C9084.17 2066.98 9011.72 2049.94 8951 2015.85C8890.63 1981.4 8844.11 1932.75 8811.44 1869.89C8778.77 1806.68 8762.43 1731.93 8762.43 1645.64C8762.43 1561.48 8778.77 1487.61 8811.44 1424.05C8844.11 1360.48 8890.1 1310.95 8949.4 1275.43C9009.06 1239.92 9079.02 1222.17 9159.27 1222.17C9213.25 1222.17 9263.5 1230.87 9310.02 1248.27C9356.89 1265.31 9397.73 1291.06 9432.53 1325.5C9467.69 1359.95 9495.03 1403.27 9514.56 1455.48C9534.09 1507.32 9543.86 1568.05 9543.86 1637.65V1699.97H8852.99V1559.35H9330.26C9330.26 1526.68 9323.16 1497.73 9308.95 1472.52C9294.75 1447.31 9275.04 1427.6 9249.83 1413.4C9224.97 1398.84 9196.03 1391.56 9163 1391.56C9128.55 1391.56 9098.02 1399.55 9071.38 1415.53C9045.1 1431.15 9024.51 1452.28 9009.59 1478.91C8994.68 1505.19 8987.04 1534.49 8986.69 1566.8V1700.5C8986.69 1740.99 8994.14 1775.97 9009.06 1805.44C9024.33 1834.92 9045.81 1857.64 9073.51 1873.62C9101.21 1889.6 9134.06 1897.59 9172.06 1897.59C9197.27 1897.59 9220.35 1894.04 9241.3 1886.94C9262.26 1879.84 9280.19 1869.18 9295.1 1854.98C9310.02 1840.77 9321.38 1823.37 9329.19 1802.78L9539.07 1816.63C9528.41 1867.05 9506.57 1911.09 9473.55 1948.73C9440.88 1986.02 9398.62 2015.14 9346.77 2036.09C9295.28 2056.68 9235.8 2066.98 9168.33 2066.98ZM9631.94 2051V1232.82H9851.94V1375.58H9860.46C9875.37 1324.79 9900.41 1286.44 9935.56 1260.52C9970.72 1234.24 10011.2 1221.1 10057 1221.1C10068.4 1221.1 10080.6 1221.81 10093.8 1223.23C10106.9 1224.65 10118.4 1226.61 10128.4 1229.09V1430.44C10117.7 1427.24 10103 1424.4 10084.2 1421.92C10065.4 1419.43 10048.1 1418.19 10032.5 1418.19C9999.13 1418.19 9969.3 1425.47 9943.02 1440.03C9917.1 1454.23 9896.5 1474.12 9881.23 1499.69C9866.32 1525.26 9858.86 1554.73 9858.86 1588.11V2051H9631.94Z" fill="#F2F2F2"/>
<defs>
<linearGradient id="paint0_linear_3219_15" x1="1500" y1="0" x2="1500" y2="3000" gradientUnits="userSpaceOnUse">
<stop stop-color="#6999F2"/>
<stop offset="1" stop-color="#216FFF"/>
</linearGradient>
</defs>
</svg>
